<svg width="24" height="24" viewBox="0 0 24 24" fill="none" xmlns="http://www.w3.org/2000/svg">
<path d="M14 7.7V7.7C14 6.57508 14 6.01262 13.7135 5.61832C13.621 5.49098 13.509 5.37899 13.3817 5.28647C12.9874 5 12.4249 5 11.3 5H8C6.58579 5 5.87868 5 5.43934 5.43934C5 5.87868 5 6.58579 5 8V11.3C5 12.4249 5 12.9874 5.28647 13.3817C5.37899 13.509 5.49098 13.621 5.61832 13.7135C6.01262 14 6.57508 14 7.7 14V14" stroke="#141414" stroke-width="1.5"/>
<rect x="10" y="10" width="9" height="9" rx="1.5" stroke="#141414" stroke-width="1.5"/>
</svg>
