<svg width="15" height="15" viewBox="0 0 15 15" fill="none" xmlns="http://www.w3.org/2000/svg">
<path d="M12.8154 2.18714C13.5493 2.92193 14.0969 3.74856 14.4581 4.66705C14.8194 5.58553 15 6.52698 15 7.49139C15 8.4558 14.8194 9.39724 14.4581 10.3157C14.0969 11.2342 13.5493 12.0608 12.8154 12.7956C12.0814 13.5304 11.2557 14.0815 10.3383 14.4489C9.42087 14.8163 8.4805 15 7.5172 15C6.5539 15 5.61067 14.8163 4.6875 14.4489C3.76434 14.0815 2.93578 13.5304 2.20183 12.7956C1.46789 12.0608 0.917431 11.2342 0.550459 10.3157C0.183486 9.39724 0 8.4558 0 7.49139C0 6.52698 0.183486 5.58553 0.550459 4.66705C0.917431 3.74856 1.46789 2.92193 2.20183 2.18714C2.93578 1.45235 3.76434 0.904133 4.6875 0.54248C5.61067 0.180827 6.5539 0 7.5172 0C8.4805 0 9.42087 0.180827 10.3383 0.54248C11.2557 0.904133 12.0814 1.45235 12.8154 2.18714ZM11.0264 10.9357C11.2672 10.6946 11.3733 10.4191 11.3446 10.1091C11.3159 9.79908 11.1812 9.52354 10.9404 9.28243L9.13417 7.47417L10.9404 5.6659C11.1812 5.4248 11.3159 5.14925 11.3446 4.83926C11.3733 4.52928 11.2672 4.25373 11.0264 4.01263C10.7856 3.77153 10.496 3.65098 10.1577 3.65098C9.81938 3.65098 9.52982 3.77153 9.28899 4.01263L7.4828 5.80367L5.72821 4.04707C5.48739 3.81745 5.21216 3.68829 4.90252 3.65959C4.59289 3.63088 4.31766 3.73134 4.07684 3.96096C3.83601 4.20207 3.7156 4.49483 3.7156 4.83926C3.7156 5.1837 3.83601 5.47646 4.07684 5.71757L5.83142 7.47417L4.07684 9.23077C3.83601 9.47187 3.7156 9.76177 3.7156 10.1005C3.7156 10.4391 3.83601 10.729 4.07684 10.9701C4.31766 11.2113 4.59289 11.3175 4.90252 11.2887C5.21216 11.26 5.48739 11.1251 5.72821 10.884L7.4828 9.12744L9.28899 10.9357C9.52982 11.1768 9.81938 11.2974 10.1577 11.2974C10.496 11.2974 10.7856 11.1768 11.0264 10.9357Z" fill="#959595"/>
</svg>
